<?xml version="1.0" encoding="UTF-8"?>
<svg version="1.1" xmlns="http://www.w3.org/2000/svg" width="1024" height="1024">
<path d="M0 0 C1.1339138 0.00351175 1.1339138 0.00351175 2.29073495 0.00709444 C3.09018995 0.005641 3.88964495 0.00418756 4.71332586 0.00269008 C7.42686865 -0.00099682 10.1403562 0.00252885 12.8538987 0.00595194 C14.80507994 0.00480118 16.75626095 0.00321397 18.70744151 0.0012247 C24.09620178 -0.00297485 29.48494449 -0.00087513 34.87370485 0.00221092 C40.67471615 0.00446227 46.47572432 0.00098673 52.27673501 -0.00176901 C63.65160324 -0.00622855 75.0264649 -0.00524942 86.40133339 -0.00235637 C95.64138684 -0.00010305 104.88143844 0.0002105 114.12149209 -0.00088018 C115.43381374 -0.00103341 116.7461354 -0.00118665 118.09822437 -0.00134452 C120.09552012 -0.00158409 122.09281588 -0.00182366 124.09011163 -0.00207142 C149.07098536 -0.00513328 174.0518555 -0.00235241 199.03272868 0.00302548 C221.24700571 0.0077714 243.461277 0.00734679 265.67555398 0.00256449 C290.60952294 -0.00278531 315.54348872 -0.00491617 340.47745818 -0.00182325 C343.13345085 -0.00150468 345.78944351 -0.00119031 348.44543618 -0.00088018 C349.75242464 -0.00072591 351.05941309 -0.00057163 352.40600726 -0.00041268 C361.64088156 0.00045275 370.87575384 -0.00101096 380.11062783 -0.00335974 C391.35635022 -0.00615692 402.60206562 -0.00542121 413.8477872 -0.00007899 C419.59157773 0.00255913 425.33535659 0.00356122 431.07914704 0.00027186 C436.32820061 -0.00268884 441.5772316 -0.00110211 446.8262831 0.00424941 C448.73406435 0.00537457 450.64184748 0.00478025 452.54962754 0.00237362 C455.12517733 -0.00062834 457.70064781 0.002412 460.27619332 0.00709444 C461.03213585 0.00475328 461.78807839 0.00241211 462.56692827 0 C467.66931379 0.01878524 467.66931379 0.01878524 468.78346413 1.13293558 C468.88344295 3.68521167 468.91787413 6.21049151 468.91044778 8.76330668 C468.91200777 9.5719989 468.91356776 10.38069113 468.91517502 11.21388918 C468.91918838 13.94473526 468.91599409 16.67552651 468.91285866 19.40637308 C468.91421256 21.35561251 468.91599242 23.30485168 468.91816872 25.25409037 C468.92274449 30.56385266 468.92095291 35.87359561 468.91778964 41.18335825 C468.91526677 46.72693536 468.91760337 52.27051076 468.9191758 57.81408793 C468.92099772 67.12545164 468.91859062 76.43680744 468.91383523 85.74816996 C468.90839257 96.53009208 468.91015521 107.31199529 468.91566163 118.09391695 C468.92019215 127.33294372 468.92084361 136.57196478 468.91822296 145.8109923 C468.91665985 151.33699071 468.91646736 156.86298022 468.91975945 162.38897806 C468.92263728 167.58287292 468.92066412 172.77674328 468.9148652 177.97063547 C468.91353712 179.88270883 468.91393251 181.79478423 468.91612786 183.70685679 C468.91883751 186.30545435 468.91546054 188.9039721 468.91044778 191.50256449 C468.9126785 192.26937729 468.91490922 193.03619009 468.91720754 193.82623965 C468.89761398 199.01878574 468.89761398 199.01878574 467.78346413 200.13293558 C465.27207175 200.23268436 462.78813504 200.26655625 460.27619332 200.25877672 C459.47673832 200.26023017 458.67728332 200.26168361 457.85360241 200.26318109 C455.14005962 200.26686799 452.42657206 200.26334231 449.71302956 200.25991923 C447.76184833 200.26106998 445.81066732 200.2626572 443.85948676 200.26464647 C438.47072649 200.26884602 433.08198378 200.2667463 427.69322342 200.26366025 C421.89221211 200.2614089 416.09120395 200.26488444 410.29019326 200.26764017 C398.91532503 200.27209972 387.54046337 200.27112059 376.16559488 200.26822753 C366.92554143 200.26597422 357.68548983 200.26566066 348.44543618 200.26675135 C347.13311453 200.26690458 345.82079287 200.26705782 344.4687039 200.26721569 C342.47140814 200.26745525 340.47411239 200.26769483 338.47681664 200.26794258 C313.4959429 200.27100445 288.51507277 200.26822358 263.53419959 200.26284569 C241.31992256 200.25809976 219.10565127 200.25852438 196.89137429 200.26330668 C171.95740533 200.26865648 147.02343955 200.27078734 122.08947009 200.26769441 C119.43347742 200.26737585 116.77748476 200.26706148 114.12149209 200.26675135 C112.1610094 200.26651994 112.1610094 200.26651994 110.16092101 200.26628385 C100.9260467 200.26541842 91.69117443 200.26688213 82.45630044 200.2692309 C71.21057805 200.27202809 59.96486265 200.27129238 48.71914107 200.26595016 C42.97535054 200.26331203 37.23157168 200.26230994 31.48778123 200.26559931 C26.23872766 200.26856001 20.98969667 200.26697328 15.74064517 200.26162176 C13.83286392 200.2604966 11.92508079 200.26109091 10.01730072 200.26349755 C7.44175093 200.26649951 4.86628045 200.26345917 2.29073495 200.25877672 C1.53479241 200.26111789 0.77884988 200.26345906 0 200.26587117 C-5.10238553 200.24708592 -5.10238553 200.24708592 -6.21653587 199.13293558 C-6.31651468 196.58065949 -6.35094586 194.05537966 -6.34351951 191.50256449 C-6.3450795 190.69387226 -6.34663949 189.88518004 -6.34824675 189.05198199 C-6.35226011 186.3211359 -6.34906582 183.59034466 -6.3459304 180.85949808 C-6.34728429 178.91025866 -6.34906415 176.96101948 -6.35124046 175.0117808 C-6.35581623 169.70201851 -6.35402464 164.39227556 -6.35086137 159.08251292 C-6.34833851 153.53893581 -6.3506751 147.99536041 -6.35224754 142.45178324 C-6.35406945 133.14041952 -6.35166236 123.82906372 -6.34690696 114.51770121 C-6.3414643 103.73577909 -6.34322694 92.95387588 -6.34873337 82.17195421 C-6.35326388 72.93292745 -6.35391535 63.69390639 -6.3512947 54.45487887 C-6.34973158 48.92888046 -6.34953909 43.40289095 -6.35283118 37.8768931 C-6.35570901 32.68299825 -6.35373585 27.48912789 -6.34793693 22.29523569 C-6.34660885 20.38316234 -6.34700425 18.47108694 -6.34919959 16.55901438 C-6.35190924 13.96041682 -6.34853227 11.36189907 -6.34351951 8.76330668 C-6.34575023 7.99649388 -6.34798095 7.22968107 -6.35027927 6.43963152 C-6.32724116 0.33423359 -6.11465734 0.02251208 0 0 Z M-3.21653587 3.13293558 C-3.21653587 67.15293558 -3.21653587 131.17293558 -3.21653587 197.13293558 C151.88346413 197.13293558 306.98346413 197.13293558 466.78346413 197.13293558 C466.78346413 133.11293558 466.78346413 69.09293558 466.78346413 3.13293558 C311.68346413 3.13293558 156.58346413 3.13293558 -3.21653587 3.13293558 Z " fill="#D9D9D9" transform="translate(276.21653586626053,412.86706441640854)"/>
<path d="M0 0 C0.92879593 0.00075944 1.85759186 0.00151888 2.81453311 0.00230134 C3.88443426 -0.00168076 4.9543354 -0.00566286 6.05665779 -0.00976562 C7.24146229 -0.00393994 8.42626678 0.00188574 9.64697444 0.00788796 C10.89825032 0.00617911 12.14952619 0.00447026 13.43871951 0.00270963 C16.92312828 -0.00177922 20.40741495 0.00626073 23.89180815 0.01626575 C27.64504602 0.02487593 31.3982766 0.02198182 35.15152156 0.0204612 C41.65800925 0.0194108 48.16445693 0.02570353 54.67093456 0.03693688 C64.07828637 0.05316801 73.48561877 0.05839743 82.89298306 0.06091286 C98.15456823 0.06529372 113.41613207 0.07861341 128.67770565 0.09751809 C143.50582956 0.11586678 158.33394768 0.13002822 173.16208065 0.13853371 C174.07557585 0.13905916 174.98907105 0.13958461 175.93024792 0.14012598 C180.51283242 0.14273599 185.09541696 0.14526342 189.67800152 0.14774978 C227.71518998 0.16849446 265.75235461 0.2037306 303.78952205 0.24839699 C303.78952205 0.90839699 303.78952205 1.56839699 303.78952205 2.24839699 C202.14952205 2.24839699 100.50952205 2.24839699 -4.21047795 2.24839699 C-2.21047795 0.24839699 -2.21047795 0.24839699 0 0 Z " fill="#E4E4E4" transform="translate(364.2104779481888,509.7516030073166)"/>
<path d="M0 0 C2 1 2 1 2 1 Z " fill="#D2D2D1" transform="translate(290,608)"/>
<path d="" fill="#686969" transform="translate(0,0)"/>
<path d="" fill="#6B6C6B" transform="translate(0,0)"/>
<path d="" fill="#6C6B6C" transform="translate(0,0)"/>
<path d="" fill="#6A6969" transform="translate(0,0)"/>
<path d="" fill="#6C6B6C" transform="translate(0,0)"/>
<path d="" fill="#6B6B6D" transform="translate(0,0)"/>
<path d="" fill="#646563" transform="translate(0,0)"/>
<path d="" fill="#6C6C6D" transform="translate(0,0)"/>
<path d="" fill="#696969" transform="translate(0,0)"/>
<path d="" fill="#6E6F6E" transform="translate(0,0)"/>
<path d="" fill="#676766" transform="translate(0,0)"/>
<path d="" fill="#656667" transform="translate(0,0)"/>
<path d="" fill="#6D6D6C" transform="translate(0,0)"/>
<path d="" fill="#686968" transform="translate(0,0)"/>
<path d="" fill="#686969" transform="translate(0,0)"/>
<path d="" fill="#666766" transform="translate(0,0)"/>
<path d="" fill="#676666" transform="translate(0,0)"/>
<path d="" fill="#6A6A69" transform="translate(0,0)"/>
<path d="" fill="#6E6D6F" transform="translate(0,0)"/>
<path d="" fill="#71706F" transform="translate(0,0)"/>
<path d="" fill="#707171" transform="translate(0,0)"/>
<path d="" fill="#6B6A6A" transform="translate(0,0)"/>
<path d="" fill="#71726F" transform="translate(0,0)"/>
<path d="" fill="#666766" transform="translate(0,0)"/>
<path d="" fill="#696769" transform="translate(0,0)"/>
<path d="" fill="#6B6D6A" transform="translate(0,0)"/>
<path d="" fill="#727271" transform="translate(0,0)"/>
<path d="" fill="#747373" transform="translate(0,0)"/>
<path d="" fill="#707070" transform="translate(0,0)"/>
<path d="" fill="#696A69" transform="translate(0,0)"/>
<path d="" fill="#696A69" transform="translate(0,0)"/>
<path d="" fill="#6D6B6C" transform="translate(0,0)"/>
<path d="" fill="#747373" transform="translate(0,0)"/>
<path d="" fill="#757575" transform="translate(0,0)"/>
<path d="" fill="#6D6E6C" transform="translate(0,0)"/>
<path d="" fill="#767575" transform="translate(0,0)"/>
<path d="" fill="#6A6B6B" transform="translate(0,0)"/>
<path d="" fill="#737673" transform="translate(0,0)"/>
<path d="" fill="#737172" transform="translate(0,0)"/>
<path d="" fill="#7D7C7B" transform="translate(0,0)"/>
<path d="" fill="#7D7B7C" transform="translate(0,0)"/>
<path d="" fill="#7C7C7C" transform="translate(0,0)"/>
<path d="" fill="#838383" transform="translate(0,0)"/>
<path d="" fill="#848485" transform="translate(0,0)"/>
<path d="" fill="#838584" transform="translate(0,0)"/>
<path d="" fill="#858583" transform="translate(0,0)"/>
<path d="" fill="#858685" transform="translate(0,0)"/>
<path d="" fill="#707070" transform="translate(0,0)"/>
<path d="" fill="#717271" transform="translate(0,0)"/>
<path d="" fill="#838282" transform="translate(0,0)"/>
<path d="" fill="#7C7C7B" transform="translate(0,0)"/>
<path d="" fill="#7F8081" transform="translate(0,0)"/>
<path d="" fill="#7F8081" transform="translate(0,0)"/>
<path d="" fill="#8E8E8D" transform="translate(0,0)"/>
<path d="" fill="#808080" transform="translate(0,0)"/>
<path d="" fill="#CAC9C9" transform="translate(0,0)"/>
<path d="" fill="#C9CBCC" transform="translate(0,0)"/>
<path d="" fill="#CFD0D0" transform="translate(0,0)"/>
<path d="" fill="#D0D0D0" transform="translate(0,0)"/>
<path d="" fill="#D5D6D4" transform="translate(0,0)"/>
<path d="" fill="#D7D6D4" transform="translate(0,0)"/>
<path d="" fill="#D7D6D4" transform="translate(0,0)"/>
<path d="" fill="#D7D7D5" transform="translate(0,0)"/>
<path d="" fill="#D6D6D4" transform="translate(0,0)"/>
<path d="" fill="#D7D8D5" transform="translate(0,0)"/>
<path d="" fill="#D6D6D4" transform="translate(0,0)"/>
<path d="" fill="#D5D7D4" transform="translate(0,0)"/>
<path d="" fill="#D2D1D2" transform="translate(0,0)"/>
<path d="" fill="#848583" transform="translate(0,0)"/>
<path d="" fill="#D6D5D6" transform="translate(0,0)"/>
<path d="" fill="#D5D6D6" transform="translate(0,0)"/>
<path d="" fill="#D6D8D5" transform="translate(0,0)"/>
<path d="" fill="#D8D5D5" transform="translate(0,0)"/>
<path d="" fill="#D5D6D6" transform="translate(0,0)"/>
<path d="" fill="#D7D7D6" transform="translate(0,0)"/>
<path d="" fill="#D6D8D7" transform="translate(0,0)"/>
<path d="" fill="#D7D8D7" transform="translate(0,0)"/>
<path d="" fill="#D7D7D8" transform="translate(0,0)"/>
<path d="" fill="#D8D8D8" transform="translate(0,0)"/>
<path d="" fill="#D6D8D5" transform="translate(0,0)"/>
<path d="" fill="#D7D8D7" transform="translate(0,0)"/>
<path d="" fill="#D6D7D6" transform="translate(0,0)"/>
<path d="" fill="#D8D6D7" transform="translate(0,0)"/>
<path d="" fill="#D8D7D7" transform="translate(0,0)"/>
<path d="" fill="#D8D8D9" transform="translate(0,0)"/>
<path d="" fill="#D8D7D6" transform="translate(0,0)"/>
<path d="" fill="#D8D8D8" transform="translate(0,0)"/>
<path d="" fill="#D6D8D8" transform="translate(0,0)"/>
<path d="" fill="#D6D6D6" transform="translate(0,0)"/>
<path d="" fill="#D9D6D7" transform="translate(0,0)"/>
<path d="" fill="#D8D9D7" transform="translate(0,0)"/>
<path d="" fill="#D7D7D7" transform="translate(0,0)"/>
<path d="" fill="#999A99" transform="translate(0,0)"/>
<path d="" fill="#888888" transform="translate(0,0)"/>
<path d="" fill="#C8C8C8" transform="translate(0,0)"/>
<path d="" fill="#A0A1A2" transform="translate(0,0)"/>
<path d="" fill="#7B7E7D" transform="translate(0,0)"/>
<path d="" fill="#8C8D8D" transform="translate(0,0)"/>
<path d="" fill="#A9A9A9" transform="translate(0,0)"/>
<path d="" fill="#7D7E7D" transform="translate(0,0)"/>
<path d="" fill="#828182" transform="translate(0,0)"/>
<path d="" fill="#7C7E7B" transform="translate(0,0)"/>
<path d="" fill="#828283" transform="translate(0,0)"/>
<path d="" fill="#878888" transform="translate(0,0)"/>
<path d="" fill="#838482" transform="translate(0,0)"/>
<path d="" fill="#7C7C7C" transform="translate(0,0)"/>
<path d="" fill="#777676" transform="translate(0,0)"/>
<path d="" fill="#818282" transform="translate(0,0)"/>
<path d="" fill="#80817F" transform="translate(0,0)"/>
<path d="" fill="#7E7E7E" transform="translate(0,0)"/>
<path d="" fill="#727372" transform="translate(0,0)"/>
<path d="" fill="#737574" transform="translate(0,0)"/>
<path d="" fill="#6D6E6D" transform="translate(0,0)"/>
<path d="" fill="#7D7D7C" transform="translate(0,0)"/>
<path d="" fill="#79797A" transform="translate(0,0)"/>
<path d="" fill="#70706F" transform="translate(0,0)"/>
<path d="" fill="#797777" transform="translate(0,0)"/>
<path d="" fill="#7B797A" transform="translate(0,0)"/>
<path d="" fill="#6A6969" transform="translate(0,0)"/>
<path d="" fill="#737573" transform="translate(0,0)"/>
<path d="" fill="#777777" transform="translate(0,0)"/>
<path d="" fill="#777878" transform="translate(0,0)"/>
<path d="" fill="#706F70" transform="translate(0,0)"/>
<path d="" fill="#777877" transform="translate(0,0)"/>
<path d="" fill="#676969" transform="translate(0,0)"/>
<path d="" fill="#787778" transform="translate(0,0)"/>
<path d="" fill="#777778" transform="translate(0,0)"/>
<path d="" fill="#787777" transform="translate(0,0)"/>
<path d="" fill="#757578" transform="translate(0,0)"/>
<path d="" fill="#696968" transform="translate(0,0)"/>
<path d="" fill="#727372" transform="translate(0,0)"/>
<path d="" fill="#757574" transform="translate(0,0)"/>
<path d="" fill="#757674" transform="translate(0,0)"/>
<path d="" fill="#757575" transform="translate(0,0)"/>
<path d="" fill="#747575" transform="translate(0,0)"/>
<path d="" fill="#787777" transform="translate(0,0)"/>
</svg>
